# xmcd
#
# Track frame offsets:
#	150
#	21072
#	37872
#	55091
#	74475
#	90856
#	106670
#	124759
#	141189
#	158664
#	174512
#	194745
#	211144
#	230560
#	249607
#
# Disc length: 3559
#
# Revision: 1
# Processed by: cddbd v1.5.1PL2 Copyright (c) Steve Scherf et al.
# Submitted via: kTunes Lite (development) 1.0patch41.39
#
DISCID=c30de50f
DTITLE=Country Jesters Vol. 1 - SC−8921
DYEAR=2005
DGENRE=Karaoke
TTITLE0=Notorious Cherry Bombs feat. Rodney Crowell and Vince Gill - It's Hard To Kiss The Lips At Night That Chew Your @%! Out All Day
TTITLE1=Toby Keith - Stays In Mexico
TTITLE2=Terri Clark - Girls Lie Too
TTITLE3=Kenny Chesney - Big Star
TTITLE4=Blake Shelton - Some Beach
TTITLE5=Brad Paisley - I'm Gonna Miss Her (The Fishin' Song)
TTITLE6=Sara Evans - Suds In The Bucket
TTITLE7=Big and Rich - Save A Horse (Ride A Cowboy)
TTITLE8=Brad Paisley - Celebrity (Radio Version)
TTITLE9=Jo Dee Messina - My Give A Damns Busted
TTITLE10=Toby Keith - Who's Your Daddy
TTITLE11=Gretchen Wilson - Homewrecker
TTITLE12=Trace Adkins - Honky Tonk Badonkadonk
TTITLE13=Tim McGraw - Do You Want Fries With That
TTITLE14=Kenny Chesney - No Shoes, No Shirt, No Problems
EXTD=
EXTT0=
EXTT1=
EXTT2=
EXTT3=
EXTT4=
EXTT5=
EXTT6=
EXTT7=
EXTT8=
EXTT9=
EXTT10=
EXTT11=
EXTT12=
EXTT13=
EXTT14=
PLAYORDER=
